# xmcd
#
# Track frame offsets: 
#        150
#        18882
#        35799
#        51945
#        66449
#        88705
#        106537
#        121722
#        139487
#        154358
#        172484
#        186396
#
# Disc length: 2714 seconds
#
# Revision: 0
# Processed by: cddbd v1.5.2PL0 Copyright (c) Steve Scherf et al.
# Submitted via: ExactAudioCopyFreeDBPlugin 1.0
#
DISCID=af0a980c
DTITLE=gordie tentrees - north country heart
DYEAR=2012
DGENRE=folk/country
TTITLE0=gypsy wind
TTITLE1=wheel and wrench
TTITLE2=north country heart
TTITLE3=holy moly
TTITLE4=black seeds
TTITLE5=hill country news
TTITLE6=little guy
TTITLE7=last word
TTITLE8=skinny trees
TTITLE9=lone sparrow
TTITLE10=sideman blues
TTITLE11=wasted moments
EXTD=
EXTT0=
EXTT1=
EXTT2=
EXTT3=
EXTT4=
EXTT5=
EXTT6=
EXTT7=
EXTT8=
EXTT9=
EXTT10=
EXTT11=
PLAYORDER=
